# xmcd
#
# Track frame offsets: 
#        150
#        22487
#        49175
#        76512
#        102925
#        126312
#        156862
#        183300
#        210112
#        236175
#        252387
#        269687
#
# Disc length: 4106 seconds
#
# Revision: 2
# Processed by: cddbd v1.5.2PL0 Copyright (c) Steve Scherf et al.
# Submitted via: ExactAudioCopy v0.99pb5
#
DISCID=a610080c
DTITLE=Various Artist - Sambandh
DYEAR=1995
DGENRE=Hindi Soundtrack
TTITLE0=Poornima and Kumar Sanu - Ek Baar Ek Baar
TTITLE1=Kumar Sanu and Pankaj Udhas - Main Dil Ki Dil Mein
TTITLE2=Alka Yagnik and Kumar Sanu - Itna Bhi Na Chaaho Mujhe
TTITLE3=Alka Yagnik and Kumar Sanu - Main Pyar Tumse
TTITLE4=Sunanda and Kumar Sanu - Sanam Yeh Pyar Hi To Hai
TTITLE5=Sapna Mukherjee - Yeh Dil Dar Raha Hai
TTITLE6=Kumar Sanu - Tum Gawaahi Ho
TTITLE7=Alka Yagnik and Kumar Sanu - Mausam Aashiqana Hai - Anokha Andaa
TTITLE7=z
TTITLE8=Kumar Sanu - Mehfil Mein Sitaaron Ki - Anokha Andaaz
TTITLE9=Sadhna Sargam and Kumar Sanu - Tum Jab Bhi Khat - Teri Mohabbat 
TTITLE9=Mein
TTITLE10=Alka Yagnik and Kumar Sanu - Raatein Hain Ikraar Ki - Teri Moha
TTITLE10=bbat Mein
TTITLE11=Ad - Tailender Of Yash
EXTD=Info from http://www.kaustubh.com
EXTT0=
EXTT1=
EXTT2=
EXTT3=
EXTT4=
EXTT5=
EXTT6=
EXTT7=
EXTT8=
EXTT9=
EXTT10=
EXTT11=
PLAYORDER=
